<svg width="18" height="18" viewBox="0 0 18 18" fill="none" xmlns="http://www.w3.org/2000/svg">
    <path d="M16.8961 8.28281C16.4988 8.28281 16.1789 8.60273 16.1789 9C16.1789 12.9586 12.9586 16.1789 9 16.1789C5.04141 16.1789 1.82109 12.9586 1.82109 9C1.82109 5.04141 5.04141 1.82109 9 1.82109C11.1621 1.82109 13.166 2.77383 14.523 4.41211H12.0445C11.6473 4.41211 11.3273 4.73203 11.3273 5.1293C11.3273 5.52656 11.6473 5.84648 12.0445 5.84648H16.0734C16.4707 5.84648 16.7906 5.52656 16.7906 5.1293V1.10391C16.7906 0.706641 16.4707 0.386719 16.0734 0.386719C15.6762 0.386719 15.3562 0.706641 15.3562 1.10391V3.17813C13.7355 1.40977 11.4539 0.386719 9 0.386719C4.25039 0.386719 0.386719 4.25039 0.386719 9C0.386719 13.7496 4.25039 17.6133 9 17.6133C13.7496 17.6133 17.6133 13.7496 17.6133 9C17.6133 8.60273 17.2934 8.28281 16.8961 8.28281Z" fill="white"/>
</svg>
