<svg width="136" height="40" viewBox="0 0 136 40" fill="none" xmlns="http://www.w3.org/2000/svg">
    <path d="M49.5693 22.0934V21.0553H50.3479V20.4065C50.3479 20.147 50.4128 19.9524 50.4776 19.7577C50.5425 19.5631 50.6723 19.4333 50.802 19.3036C50.9318 19.1738 51.1264 19.1089 51.3211 19.0441C51.5157 18.9792 51.7103 18.9792 51.9699 18.9792C52.2294 18.9792 52.4889 18.9792 52.7484 19.0441V20.0821C52.6835 20.0821 52.6835 20.0821 52.6187 20.0821H52.4889C52.2943 20.0821 52.0996 20.147 52.0347 20.2119C51.9699 20.2768 51.905 20.4065 51.905 20.6012V21.1202H52.7484V22.1583H51.905V27.0242H50.4128V22.1583H49.5693V22.0934Z" fill="white"/>
    <path d="M54.5002 24.6885C54.5002 24.8832 54.5002 25.0129 54.565 25.2076C54.565 25.4022 54.6299 25.532 54.6948 25.6617C54.7597 25.7915 54.8245 25.9212 54.9543 25.9861C55.0192 26.051 55.1489 26.1159 55.2787 26.1159C55.5382 26.1159 55.7329 26.051 55.8626 25.8564C55.9924 25.6617 56.0573 25.4022 56.1221 25.0129H57.4846C57.4846 25.7266 57.29 26.2456 56.9656 26.57C56.6412 26.8944 56.1221 27.0891 55.4085 27.0891C54.8894 27.0891 54.4353 27.0242 54.1109 26.8295C53.7865 26.6349 53.5918 26.4403 53.4621 26.1159C53.3323 25.7915 53.2026 25.4671 53.2026 25.1427C53.1377 24.7534 53.1377 24.429 53.1377 24.0397C53.1377 23.6505 53.1377 23.2612 53.2026 22.9368C53.2675 22.5475 53.3972 22.2231 53.527 21.9636C53.7216 21.7041 53.9162 21.4446 54.2406 21.3148C54.565 21.1202 54.9543 21.0553 55.4733 21.0553C55.9275 21.0553 56.2519 21.1202 56.5763 21.2499C56.8358 21.3797 57.0953 21.5743 57.2251 21.8339C57.3548 22.0934 57.4846 22.4178 57.5495 22.7422C57.6144 23.1314 57.6144 23.5207 57.6144 23.9749V24.2993H54.5002V24.6885ZM55.9924 22.7422C55.9924 22.5475 55.9275 22.4178 55.8626 22.288C55.7977 22.1582 55.7329 22.0934 55.6031 22.0285C55.4733 21.9636 55.4085 21.9636 55.2138 21.9636C55.0192 21.9636 54.9543 22.0285 54.8246 22.0934C54.6948 22.1582 54.6299 22.2231 54.565 22.3529C54.5002 22.4826 54.4353 22.6124 54.4353 22.7422C54.4353 22.8719 54.3704 23.0017 54.3704 23.1314V23.3261H55.9275C55.9924 23.1314 55.9924 22.9368 55.9924 22.7422Z" fill="white"/>
    <path d="M61.2489 26.3105C61.0543 26.57 60.9245 26.7647 60.665 26.8944C60.4704 27.0242 60.2108 27.0891 59.8864 27.0891C59.2377 27.0891 58.7835 26.8296 58.524 26.3754C58.2645 25.9213 58.0698 25.1427 58.0698 24.0398C58.0698 22.9368 58.1996 22.1583 58.524 21.7041C58.7835 21.25 59.2377 20.9904 59.8864 20.9904C60.146 20.9904 60.4055 21.0553 60.6001 21.1851C60.7947 21.3148 60.9894 21.4446 61.1191 21.7041V19.2387H62.6114V27.0242H61.184L61.2489 26.3105ZM59.7567 25.4671C59.8864 25.7915 60.0811 25.9213 60.4055 25.9213C60.7299 25.9213 60.9245 25.7915 61.0543 25.4671C61.184 25.1427 61.184 24.6886 61.184 24.0398C61.184 23.391 61.1191 22.9368 61.0543 22.6124C60.9245 22.288 60.7299 22.1583 60.4055 22.1583C60.0811 22.1583 59.8864 22.288 59.7567 22.6124C59.6269 22.9368 59.6269 23.391 59.6269 24.0398C59.6269 24.6886 59.6269 25.1427 59.7567 25.4671Z" fill="white"/>
    <path d="M64.9479 24.6885C64.9479 24.8832 64.9479 25.0129 65.0128 25.2076C65.0128 25.4022 65.0777 25.532 65.1425 25.6617C65.2074 25.7915 65.2723 25.9212 65.4021 25.9861C65.4669 26.051 65.5967 26.1159 65.7265 26.1159C65.986 26.1159 66.1806 26.051 66.3104 25.8564C66.4401 25.6617 66.505 25.4022 66.5699 25.0129H67.9323C67.9323 25.7266 67.7377 26.2456 67.4133 26.57C67.0889 26.8944 66.5699 27.0891 65.8562 27.0891C65.3372 27.0891 64.883 27.0242 64.5586 26.8295C64.2342 26.6349 64.0396 26.4403 63.9098 26.1159C63.7801 25.7915 63.6503 25.4671 63.6503 25.1427C63.5854 24.7534 63.5854 24.429 63.5854 24.0397C63.5854 23.6505 63.5854 23.2612 63.6503 22.9368C63.7152 22.5475 63.845 22.2231 63.9747 21.9636C64.1694 21.7041 64.364 21.4446 64.6884 21.3148C65.0128 21.1202 65.4021 21.0553 65.9211 21.0553C66.3753 21.0553 66.6996 21.1202 67.024 21.2499C67.2836 21.3797 67.5431 21.5743 67.6728 21.8338C67.8026 22.0934 67.9324 22.4178 67.9972 22.7422C68.0621 23.1314 68.0621 23.5207 68.0621 23.9749V24.2993H65.0777V24.6885H64.9479ZM66.4401 22.7422C66.4401 22.5475 66.3752 22.4178 66.3104 22.288C66.2455 22.1582 66.1806 22.0934 66.0509 22.0285C65.9211 21.9636 65.8562 21.9636 65.6616 21.9636C65.4669 21.9636 65.4021 22.0285 65.2723 22.0934C65.1425 22.1582 65.0777 22.2231 65.0128 22.3529C64.9479 22.4826 64.883 22.6124 64.883 22.7422C64.883 22.8719 64.8182 23.0017 64.8182 23.1314V23.3261H66.3753C66.505 23.1314 66.505 22.9368 66.4401 22.7422Z" fill="white"/>
    <path d="M70.1386 21.1202V21.8987C70.2684 21.6392 70.463 21.3797 70.7226 21.2499C70.9172 21.0553 71.1767 20.9904 71.5011 20.9904C71.566 20.9904 71.566 20.9904 71.6309 20.9904C71.6957 20.9904 71.6957 20.9904 71.7606 20.9904V22.4178C71.6957 22.4178 71.6309 22.4178 71.5011 22.4178C71.4362 22.4178 71.3713 22.4178 71.2416 22.4178C71.1118 22.4178 70.9821 22.4178 70.8523 22.4826C70.7226 22.5475 70.5928 22.5475 70.463 22.6773C70.3333 22.7422 70.2684 22.8719 70.2035 23.0017C70.1386 23.1314 70.0738 23.3261 70.0738 23.5207V27.0242H68.5815V21.1851H70.1386V21.1202Z" fill="white"/>
    <path d="M72.345 22.7422C72.345 22.4178 72.4099 22.0934 72.5397 21.8987C72.6694 21.6392 72.7992 21.5095 72.9938 21.3148C73.1885 21.1851 73.3831 21.0553 73.6426 20.9904C73.9021 20.9255 74.1616 20.9255 74.4212 20.9255C74.8753 20.9255 75.2646 20.9904 75.5241 21.0553C75.7836 21.1202 76.0431 21.2499 76.1729 21.4446C76.3027 21.5743 76.4324 21.769 76.4973 22.0285C76.5622 22.2231 76.5622 22.4826 76.5622 22.7422V25.7915C76.5622 26.051 76.5622 26.3105 76.6271 26.4403C76.6271 26.57 76.6919 26.7647 76.7568 26.9593H75.2646C75.1997 26.8944 75.1997 26.7647 75.1348 26.6349C75.1348 26.5051 75.07 26.4403 75.07 26.3105C74.8753 26.6349 74.6807 26.8295 74.486 26.8944C74.2265 26.9593 73.967 27.0242 73.5777 27.0242C73.3182 27.0242 73.1236 26.9593 72.9289 26.8944C72.7343 26.8295 72.6045 26.6998 72.4748 26.5051C72.345 26.3754 72.2802 26.1807 72.2153 25.9861C72.1504 25.7915 72.1504 25.5968 72.1504 25.4022C72.1504 25.1427 72.1504 24.8832 72.2153 24.6885C72.2802 24.4939 72.345 24.2993 72.4748 24.1695C72.6045 24.0397 72.7343 23.91 72.9289 23.8451C73.1236 23.7802 73.3182 23.6505 73.5777 23.5856L74.4212 23.3261C74.6158 23.2612 74.8104 23.1963 74.8753 23.0665C74.9402 22.9368 75.0051 22.807 75.0051 22.6124C75.0051 22.4178 74.9402 22.2231 74.8753 22.0934C74.7456 21.9636 74.6158 21.8987 74.3563 21.8987C74.0968 21.8987 73.967 21.9636 73.8373 22.0934C73.7075 22.2231 73.6426 22.4178 73.6426 22.6773V22.8719H72.2802V22.7422H72.345ZM74.7456 24.2344C74.6158 24.2993 74.5509 24.2993 74.4212 24.3641C74.0968 24.429 73.9021 24.5588 73.7724 24.6885C73.6426 24.8183 73.5777 25.0778 73.5777 25.3373C73.5777 25.532 73.6426 25.7266 73.7075 25.9212C73.7724 26.051 73.967 26.1807 74.1616 26.1807C74.2914 26.1807 74.3563 26.1807 74.486 26.1159C74.6158 26.051 74.6807 26.051 74.8104 25.9861C74.8753 25.9212 75.0051 25.7915 75.0051 25.7266C75.07 25.5968 75.07 25.4671 75.07 25.3373V24.1695C75.0051 24.1046 74.8753 24.1695 74.7456 24.2344Z" fill="white"/>
    <path d="M79.4176 19.4333V21.1202H80.261V22.1583H79.4176V25.2725C79.4176 25.532 79.4824 25.6617 79.5473 25.7915C79.6122 25.9213 79.742 25.9213 80.0015 25.9213C80.0664 25.9213 80.1312 25.9213 80.1961 25.9213C80.261 25.9213 80.3259 25.9213 80.3907 25.9213V26.9593C80.1961 26.9593 80.0663 26.9593 79.9366 26.9593C79.8068 26.9593 79.6122 26.9593 79.4176 26.9593C79.158 26.9593 78.8985 26.9593 78.7039 26.8944C78.5093 26.8296 78.3795 26.7647 78.2497 26.6349C78.12 26.5052 78.0551 26.3754 78.0551 26.1808C77.9902 25.9861 77.9902 25.7266 77.9902 25.4671V22.0934H77.2117V21.0553H77.9902V19.4333H79.4176Z" fill="white"/>
    <path d="M82.4024 19.1089V20.4065H80.9102V19.1089H82.4024ZM82.4024 21.1202V26.9593H80.9102V21.1202H82.4024Z" fill="white"/>
    <path d="M83.3759 22.6773C83.4407 22.288 83.5705 21.9636 83.7651 21.7041C83.9598 21.4446 84.1544 21.2499 84.4788 21.1202C84.8032 20.9904 85.1276 20.9255 85.5817 20.9255C86.0359 20.9255 86.4252 20.9904 86.6847 21.1202C87.0091 21.2499 87.2037 21.4446 87.3984 21.7041C87.593 21.9636 87.7228 22.288 87.7876 22.6773C87.8525 23.0665 87.9174 23.5207 87.9174 24.0397C87.9174 24.5588 87.8525 25.0129 87.7876 25.3373C87.7228 25.7266 87.593 26.051 87.3984 26.3105C87.2037 26.57 87.0091 26.7647 86.6847 26.8944C86.3603 27.0242 86.0359 27.0891 85.5817 27.0891C85.1276 27.0891 84.7383 27.0242 84.4788 26.8944C84.1544 26.7647 83.9598 26.57 83.7651 26.3105C83.5705 26.051 83.4407 25.7266 83.3759 25.3373C83.311 24.948 83.2461 24.4939 83.2461 23.9749C83.2461 23.5207 83.2461 23.0665 83.3759 22.6773ZM84.7383 24.8183C84.7383 25.0778 84.8032 25.2724 84.8681 25.4671C84.933 25.6617 84.9978 25.7915 85.1276 25.9212C85.2573 26.051 85.3871 26.051 85.5817 26.051C85.9061 26.051 86.1008 25.9212 86.2305 25.5968C86.3603 25.2724 86.4252 24.7534 86.4252 24.0397C86.4252 23.3261 86.3603 22.807 86.2305 22.4826C86.1008 22.1582 85.9061 22.0285 85.5817 22.0285C85.3871 22.0285 85.2573 22.0934 85.1276 22.1582C84.9978 22.288 84.933 22.4178 84.8681 22.6124C84.8032 22.807 84.8032 23.0017 84.7383 23.2612C84.7383 23.5207 84.7383 23.7802 84.7383 24.1046C84.7383 24.2993 84.7383 24.6236 84.7383 24.8183Z" fill="white"/>
    <path d="M90.1241 21.1202V21.8338C90.2539 21.5743 90.5134 21.3148 90.7729 21.1851C91.0324 21.0553 91.2919 20.9904 91.6163 20.9904C92.0705 20.9904 92.4598 21.1202 92.7193 21.3797C92.9788 21.6392 93.1086 22.0934 93.1086 22.6773V27.0242H91.6163V23.0017C91.6163 22.6773 91.5515 22.4826 91.4866 22.3529C91.3568 22.2231 91.2271 22.1582 90.9675 22.1582C90.4485 22.1582 90.189 22.4826 90.189 23.1314V27.0242H88.6968V21.1851H90.1241V21.1202Z" fill="white"/>
    <path d="M49.8939 33.7716C49.9588 33.3823 50.0886 33.0579 50.2832 32.7984C50.4778 32.5389 50.6725 32.3442 50.9969 32.2145C51.3213 32.0847 51.6457 32.0198 52.0998 32.0198C52.554 32.0198 52.9432 32.0847 53.2028 32.2145C53.5272 32.3442 53.7218 32.5389 53.9164 32.7984C54.1111 33.0579 54.2408 33.3823 54.3057 33.7716C54.3706 34.1609 54.4355 34.615 54.4355 35.134C54.4355 35.6531 54.3706 36.1072 54.3057 36.4316C54.2408 36.8209 54.1111 37.1453 53.9164 37.4048C53.7218 37.6643 53.5272 37.859 53.2028 37.9887C52.8784 38.1185 52.554 38.1834 52.0998 38.1834C51.6457 38.1834 51.2564 38.1185 50.9969 37.9887C50.6725 37.859 50.4778 37.6643 50.2832 37.4048C50.0886 37.1453 49.9588 36.8209 49.8939 36.4316C49.829 36.0424 49.7642 35.5882 49.7642 35.0692C49.7642 34.5501 49.829 34.096 49.8939 33.7716ZM51.3213 35.9126C51.3213 36.1721 51.3861 36.3667 51.451 36.5614C51.5159 36.756 51.5808 36.8858 51.7105 37.0155C51.8403 37.1453 51.9701 37.1453 52.1647 37.1453C52.4891 37.1453 52.6837 37.0155 52.8135 36.6911C52.9432 36.3667 53.0081 35.8477 53.0081 35.134C53.0081 34.4204 52.9432 33.9013 52.8135 33.5769C52.6837 33.2525 52.4891 33.1228 52.1647 33.1228C51.9701 33.1228 51.8403 33.1877 51.7105 33.2525C51.5808 33.3823 51.5159 33.5121 51.451 33.7067C51.3861 33.9013 51.3861 34.096 51.3213 34.3555C51.3213 34.615 51.3213 34.8745 51.3213 35.1989C51.2564 35.3936 51.3213 35.6531 51.3213 35.9126Z" fill="white"/>
    <path d="M54.7598 33.1877V32.1496H55.5383V31.5008C55.5383 31.2413 55.6032 31.0467 55.6681 30.852C55.733 30.6574 55.8627 30.5276 55.9925 30.3979C56.1222 30.2681 56.3169 30.2032 56.5115 30.1384C56.7061 30.0735 56.9008 30.0735 57.1603 30.0735C57.4198 30.0735 57.6793 30.0735 57.9388 30.1384V31.1764C57.874 31.1764 57.874 31.1764 57.8091 31.1764H57.6793C57.4847 31.1764 57.29 31.2413 57.2252 31.3062C57.1603 31.3711 57.0954 31.5008 57.0954 31.6955V32.2145H57.9388V33.2526H57.0954V38.1185H55.6032V33.2526H54.7598V33.1877Z" fill="white"/>
    <path d="M63.4549 30.2032L64.5578 35.718L65.6607 30.2032H67.9964V37.9887H66.569V31.7603L65.2066 37.9887H63.9739L62.6114 31.7603V37.9887H61.1841V30.2032H63.4549Z" fill="white"/>
    <path d="M69.1006 33.7716C69.1006 33.4472 69.1655 33.1228 69.2953 32.9281C69.425 32.6686 69.5548 32.5389 69.7494 32.3442C69.9441 32.2145 70.1387 32.0847 70.3982 32.0198C70.6577 31.955 70.9173 31.955 71.1768 31.955C71.6309 31.955 72.0202 32.0198 72.2797 32.0847C72.5392 32.1496 72.7988 32.2794 72.9285 32.474C73.0583 32.6037 73.188 32.7984 73.2529 33.0579C73.3178 33.2525 73.3178 33.5121 73.3178 33.7716V36.8209C73.3178 37.0804 73.3178 37.3399 73.3827 37.4697C73.3827 37.5994 73.4475 37.7941 73.5124 37.9887H72.0202C71.9553 37.9238 71.9553 37.7941 71.8904 37.6643C71.8904 37.5346 71.8256 37.4697 71.8256 37.3399C71.6309 37.6643 71.4363 37.859 71.2417 37.9238C70.9821 37.9887 70.7226 38.0536 70.3333 38.0536C70.0738 38.0536 69.8792 37.9887 69.6846 37.9238C69.4899 37.859 69.3602 37.7292 69.2304 37.5346C69.1006 37.4048 69.0358 37.2102 68.9709 37.0155C68.906 36.8209 68.906 36.6263 68.906 36.4316C68.906 36.1721 68.906 35.9126 68.9709 35.7179C69.0358 35.5233 69.1006 35.3287 69.2304 35.1989C69.3602 35.0692 69.4899 34.9394 69.6846 34.8745C69.8792 34.8096 70.0738 34.6799 70.3333 34.615L71.1768 34.3555C71.3714 34.2906 71.5661 34.2257 71.6309 34.096C71.6958 33.9662 71.7607 33.8365 71.7607 33.6418C71.7607 33.4472 71.6958 33.2525 71.6309 33.1228C71.5012 32.993 71.3714 32.9281 71.1119 32.9281C70.8524 32.9281 70.7226 32.993 70.5929 33.1228C70.4631 33.2525 70.3982 33.4472 70.3982 33.7067V33.9013H69.0358V33.7716H69.1006ZM71.5012 35.2638C71.3714 35.3287 71.3065 35.3287 71.1768 35.3935C70.8524 35.4584 70.6577 35.5882 70.528 35.7179C70.3982 35.8477 70.3333 36.1072 70.3333 36.3667C70.3333 36.5614 70.3982 36.756 70.4631 36.9506C70.528 37.0804 70.7226 37.2102 70.9173 37.2102C71.047 37.2102 71.1119 37.2102 71.2417 37.1453C71.3714 37.0804 71.4363 37.0804 71.5661 37.0155C71.6309 36.9506 71.7607 36.8209 71.7607 36.756C71.8256 36.6263 71.8256 36.4965 71.8256 36.3667V35.1989C71.7607 35.134 71.6309 35.1989 71.5012 35.2638Z" fill="white"/>
    <path d="M75.784 32.1496V32.8633C75.9138 32.6037 76.1733 32.3442 76.4328 32.2145C76.6923 32.0847 76.9519 32.0198 77.2762 32.0198C77.7304 32.0198 78.1197 32.1496 78.3792 32.4091C78.6387 32.6686 78.7685 33.1228 78.7685 33.7067V38.0536H77.2762V34.0311C77.2762 33.7067 77.2114 33.5121 77.1465 33.3823C77.0167 33.2525 76.887 33.1877 76.6275 33.1877C76.1084 33.1877 75.8489 33.5121 75.8489 34.1608V38.0536H74.3567V32.2145H75.784V32.1496Z" fill="white"/>
    <path d="M84.1538 37.7293C84.1538 38.5078 83.9592 39.0268 83.5699 39.4161C83.1807 39.8054 82.5967 40 81.6884 40C81.0396 40 80.5855 39.8703 80.1962 39.6108C79.8718 39.3512 79.6772 38.962 79.6772 38.4429H81.1045C81.1045 38.6376 81.1694 38.7673 81.364 38.8971C81.4289 38.962 81.4938 38.962 81.6236 39.0268C81.6884 39.0268 81.8182 39.0917 81.8831 39.0917C82.2075 39.0917 82.4021 38.962 82.5319 38.7673C82.6616 38.5727 82.7265 38.3132 82.7265 38.0537V37.2751C82.5967 37.4697 82.4021 37.6644 82.1426 37.7941C81.948 37.9239 81.6884 37.9888 81.4289 37.9888C80.845 37.9888 80.3909 37.7941 80.0665 37.34C79.7421 36.8858 79.6123 36.1073 79.6123 35.0692C79.6123 34.7448 79.6123 34.3555 79.6772 34.0312C79.7421 33.7068 79.8069 33.3824 79.9367 33.058C80.0665 32.7984 80.2611 32.5389 80.5206 32.3443C80.7801 32.1497 81.1045 32.0848 81.4938 32.0848C81.6884 32.0848 81.948 32.1497 82.1426 32.2794C82.3372 32.4092 82.5319 32.6038 82.7265 32.9282V32.2794H84.1538V37.7293ZM81.1694 35.8478C81.1694 36.0424 81.2343 36.1722 81.2992 36.3019C81.364 36.4317 81.4289 36.5614 81.5587 36.6263C81.6884 36.6912 81.7533 36.7561 81.948 36.7561C82.0777 36.7561 82.2724 36.6912 82.3372 36.6263C82.467 36.5614 82.5319 36.4317 82.5967 36.3019C82.6616 36.1722 82.7265 35.9775 82.7265 35.7829C82.7265 35.5883 82.7914 35.3287 82.7914 35.1341C82.7914 34.4204 82.7265 33.9014 82.5967 33.6419C82.467 33.3175 82.2724 33.1877 82.0128 33.1877C81.8182 33.1877 81.6884 33.2526 81.6236 33.3175C81.4938 33.3824 81.4289 33.5121 81.364 33.6419C81.2992 33.8365 81.2992 34.0312 81.2343 34.2907C81.2343 34.5502 81.2343 34.8746 81.2343 35.2639C81.1694 35.4585 81.1694 35.6531 81.1694 35.8478Z" fill="white"/>
    <path d="M86.815 30.1384V31.4359H85.3228V30.1384H86.815ZM86.815 32.1496V37.9887H85.3228V32.1496H86.815Z" fill="white"/>
    <path d="M88.9562 36.3019C88.9562 36.5614 89.021 36.756 89.1508 36.8858C89.2805 37.0155 89.4752 37.1453 89.7347 37.1453C89.9942 37.1453 90.124 37.0804 90.3186 36.9506C90.4484 36.8209 90.5133 36.6911 90.5133 36.4316C90.5133 36.237 90.4484 36.1072 90.3186 35.9775C90.1889 35.8477 90.0591 35.7828 89.9293 35.7179L88.8913 35.3287C88.502 35.1989 88.1776 35.0043 87.983 34.7448C87.7883 34.4852 87.6586 34.1608 87.6586 33.7067C87.6586 33.4472 87.7235 33.2525 87.7883 33.0579C87.8532 32.8633 87.983 32.6686 88.1776 32.474C88.3722 32.3442 88.5669 32.2145 88.8264 32.0847C89.0859 32.0198 89.4103 31.955 89.7996 31.955C90.5132 31.955 90.9674 32.0847 91.2918 32.4091C91.6162 32.6686 91.8108 33.1228 91.8108 33.6418V33.9013H90.4484C90.4484 33.5769 90.3835 33.3823 90.3186 33.2525C90.1889 33.1228 90.0591 33.0579 89.7996 33.0579C89.6049 33.0579 89.4752 33.1228 89.2806 33.1877C89.1508 33.3174 89.0859 33.4472 89.0859 33.6418C89.0859 33.7716 89.1508 33.9013 89.2157 34.0311C89.2805 34.1608 89.4752 34.2257 89.7347 34.3555L90.643 34.6799C91.0972 34.8096 91.4216 35.0692 91.6162 35.3287C91.8108 35.5882 91.9406 35.9126 91.9406 36.3667C91.9406 36.6911 91.8757 36.9506 91.746 37.2102C91.6162 37.4697 91.4864 37.5994 91.2918 37.7941C91.0972 37.9238 90.9025 38.0536 90.5781 38.1185C90.2537 38.1834 89.9942 38.2482 89.6698 38.2482C89.2805 38.2482 88.8913 38.1834 88.6318 38.1185C88.3722 38.0536 88.1127 37.9238 87.983 37.7292C87.7883 37.5994 87.7235 37.4048 87.6586 37.1453C87.5937 36.8858 87.5288 36.6911 87.5288 36.3667V36.1721H88.8913V36.3019H88.9562Z" fill="white"/>
    <path d="M94.5362 30.4628V32.1496H95.3796V33.1877H94.5362V36.3019C94.5362 36.5614 94.6011 36.6912 94.666 36.8209C94.7308 36.9507 94.8606 36.9507 95.1201 36.9507C95.185 36.9507 95.2499 36.9507 95.3148 36.9507C95.3796 36.9507 95.4445 36.9507 95.5094 36.9507V37.9887C95.3148 37.9887 95.185 37.9887 95.0552 37.9887C94.9255 37.9887 94.7308 37.9887 94.5362 37.9887C94.2767 37.9887 94.0172 37.9887 93.8225 37.9239C93.6279 37.859 93.4981 37.7941 93.3684 37.6644C93.2386 37.5346 93.1738 37.4048 93.1738 37.2102C93.1089 37.0156 93.1089 36.756 93.1089 36.4965V33.1228H92.3303V32.0847H93.1089V30.4628H94.5362Z" fill="white"/>
    <path d="M95.8993 33.7716C95.8993 33.4472 95.9642 33.1228 96.0939 32.9281C96.2237 32.6686 96.3534 32.5389 96.5481 32.3442C96.7427 32.2145 96.9374 32.0847 97.1969 32.0198C97.4564 31.955 97.7159 31.955 97.9754 31.955C98.4296 31.955 98.8188 32.0198 99.0784 32.0847C99.3379 32.1496 99.5974 32.2794 99.7272 32.474C99.8569 32.6037 99.9867 32.7984 100.052 33.0579C100.116 33.2525 100.116 33.5121 100.116 33.7716V36.8209C100.116 37.0804 100.116 37.3399 100.181 37.4697C100.181 37.5994 100.246 37.7941 100.311 37.9887H98.8837C98.8188 37.9238 98.8188 37.7941 98.754 37.6643C98.754 37.5346 98.6891 37.4697 98.6891 37.3399C98.4945 37.6643 98.2998 37.859 98.1052 37.9238C97.8457 37.9887 97.5861 38.0536 97.1969 38.0536C96.9374 38.0536 96.7427 37.9887 96.5481 37.9238C96.3534 37.859 96.2237 37.7292 96.0939 37.5346C95.9642 37.4048 95.8993 37.2102 95.8344 37.0155C95.7695 36.8209 95.7695 36.6263 95.7695 36.4316C95.7695 36.1721 95.7695 35.9126 95.8344 35.7179C95.8993 35.5233 95.9642 35.3287 96.0939 35.1989C96.2237 35.0692 96.3534 34.9394 96.5481 34.8745C96.7427 34.8096 96.9374 34.6799 97.1969 34.615L98.0403 34.3555C98.2349 34.2906 98.4296 34.2257 98.4945 34.096C98.5593 33.9662 98.6242 33.8365 98.6242 33.6418C98.6242 33.4472 98.5593 33.2525 98.4945 33.1228C98.3647 32.993 98.2349 32.9281 97.9754 32.9281C97.7159 32.9281 97.5861 32.993 97.4564 33.1228C97.3266 33.2525 97.2617 33.4472 97.2617 33.7067V33.9013H95.8993V33.7716ZM98.2998 35.2638C98.1701 35.3287 98.1052 35.3287 97.9754 35.3935C97.651 35.4584 97.4564 35.5882 97.3266 35.7179C97.1969 35.8477 97.132 36.1072 97.132 36.3667C97.132 36.5614 97.1969 36.756 97.2617 36.9506C97.3266 37.0804 97.5213 37.2102 97.7159 37.2102C97.8457 37.2102 97.9105 37.2102 98.0403 37.1453C98.1701 37.0804 98.2349 37.0804 98.3647 37.0155C98.4296 36.9506 98.5593 36.8209 98.5593 36.756C98.6242 36.6263 98.6242 36.4965 98.6242 36.3667V35.1989C98.5593 35.134 98.4296 35.1989 98.2998 35.2638Z" fill="white"/>
    <path d="M104.14 37.34C104.01 37.5995 103.75 37.859 103.491 37.9888C103.231 38.1185 102.972 38.1834 102.647 38.1834C102.193 38.1834 101.804 38.0537 101.545 37.7941C101.285 37.5346 101.155 37.1454 101.155 36.5614V32.2145H102.647V36.237C102.647 36.5614 102.712 36.7561 102.777 36.8858C102.907 37.0156 103.037 37.0805 103.296 37.0805C103.815 37.0805 104.075 36.7561 104.075 36.1073V32.2145H105.567V38.0537H104.14V37.34Z" fill="white"/>
    <path d="M110.629 32.1496V32.9281C110.758 32.6686 110.953 32.4091 111.213 32.2794C111.407 32.0847 111.667 32.0198 111.991 32.0198C112.056 32.0198 112.056 32.0198 112.121 32.0198C112.186 32.0198 112.186 32.0198 112.251 32.0198V33.4472C112.186 33.4472 112.121 33.4472 111.991 33.4472C111.926 33.4472 111.861 33.4472 111.732 33.4472C111.602 33.4472 111.472 33.4472 111.342 33.5121C111.213 33.5769 111.083 33.5769 110.953 33.7067C110.823 33.7716 110.758 33.9013 110.694 34.0311C110.629 34.1608 110.564 34.3555 110.564 34.5501V38.0536H109.072V32.2145H110.629V32.1496Z" fill="white"/>
    <path d="M114.133 35.7828C114.133 35.9775 114.133 36.1072 114.198 36.3019C114.198 36.4965 114.262 36.6263 114.327 36.756C114.392 36.8858 114.457 37.0155 114.587 37.0804C114.652 37.1453 114.782 37.2102 114.911 37.2102C115.171 37.2102 115.365 37.1453 115.495 36.9507C115.625 36.756 115.69 36.4965 115.755 36.1072H117.117C117.117 36.8209 116.923 37.3399 116.598 37.6643C116.274 37.9887 115.755 38.1834 115.041 38.1834C114.522 38.1834 114.068 38.1185 113.743 37.9238C113.419 37.7292 113.224 37.5346 113.095 37.2102C112.965 36.8858 112.835 36.5614 112.835 36.237C112.77 35.8477 112.77 35.5233 112.77 35.134C112.77 34.7448 112.77 34.3555 112.835 34.0311C112.9 33.6418 113.03 33.3174 113.16 33.0579C113.354 32.7984 113.549 32.5389 113.873 32.4091C114.198 32.2145 114.587 32.1496 115.106 32.1496C115.56 32.1496 115.884 32.2145 116.209 32.3442C116.468 32.474 116.728 32.6686 116.858 32.9281C116.987 33.1877 117.117 33.5121 117.182 33.8365C117.247 34.2257 117.247 34.615 117.247 35.0692V35.3936H114.262V35.7828H114.133ZM115.625 33.8365C115.625 33.6418 115.56 33.5121 115.495 33.3823C115.43 33.2525 115.365 33.1877 115.236 33.1228C115.106 33.0579 115.041 33.0579 114.846 33.0579C114.652 33.0579 114.587 33.1228 114.457 33.1877C114.327 33.2525 114.262 33.3174 114.198 33.4472C114.133 33.5769 114.068 33.7067 114.068 33.8365C114.068 33.9662 114.003 34.096 114.003 34.2257V34.4852H115.56C115.625 34.1609 115.625 33.9662 115.625 33.8365Z" fill="white"/>
    <path d="M122.243 37.7293C122.243 38.5078 122.048 39.0268 121.659 39.4161C121.27 39.8054 120.686 40 119.778 40C119.129 40 118.675 39.8703 118.285 39.6108C117.961 39.3512 117.766 38.962 117.766 38.4429H119.194C119.194 38.6376 119.259 38.7673 119.453 38.8971C119.518 38.962 119.583 38.962 119.713 39.0268C119.778 39.0268 119.907 39.0917 119.972 39.0917C120.297 39.0917 120.491 38.962 120.621 38.7673C120.751 38.5727 120.816 38.3132 120.816 38.0537V37.2751C120.686 37.4697 120.491 37.6644 120.232 37.7941C120.037 37.9239 119.778 37.9888 119.518 37.9888C118.934 37.9888 118.48 37.7941 118.156 37.34C117.831 36.8858 117.701 36.1073 117.701 35.0692C117.701 34.7448 117.701 34.3555 117.766 34.0312C117.831 33.7068 117.896 33.3824 118.026 33.058C118.156 32.7984 118.35 32.5389 118.61 32.3443C118.869 32.1497 119.194 32.0848 119.583 32.0848C119.778 32.0848 120.037 32.1497 120.232 32.2794C120.426 32.4092 120.621 32.6038 120.816 32.9282V32.2794H122.243V37.7293ZM119.259 35.8478C119.259 36.0424 119.323 36.1722 119.388 36.3019C119.453 36.4317 119.518 36.5614 119.648 36.6263C119.778 36.6912 119.842 36.7561 120.037 36.7561C120.232 36.7561 120.361 36.6912 120.426 36.6263C120.556 36.5614 120.621 36.4317 120.686 36.3019C120.751 36.1722 120.816 35.9775 120.816 35.7829C120.816 35.5883 120.88 35.3287 120.88 35.1341C120.88 34.4204 120.816 33.9014 120.686 33.6419C120.556 33.3175 120.361 33.1877 120.102 33.1877C119.907 33.1877 119.778 33.2526 119.713 33.3175C119.583 33.3824 119.518 33.5121 119.453 33.6419C119.388 33.8365 119.388 34.0312 119.323 34.2907C119.323 34.5502 119.323 34.8746 119.323 35.2639C119.259 35.4585 119.259 35.6531 119.259 35.8478Z" fill="white"/>
    <path d="M124.839 30.1384V31.4359H123.347V30.1384H124.839ZM124.839 32.1496V37.9887H123.347V32.1496H124.839Z" fill="white"/>
    <path d="M125.813 33.7716C125.877 33.3823 126.007 33.0579 126.202 32.7984C126.397 32.5389 126.591 32.3442 126.916 32.2145C127.24 32.0847 127.564 32.0198 128.019 32.0198C128.473 32.0198 128.862 32.0847 129.121 32.2145C129.446 32.3442 129.64 32.5389 129.835 32.7984C130.03 33.0579 130.16 33.3823 130.224 33.7716C130.289 34.1608 130.354 34.615 130.354 35.134C130.354 35.6531 130.289 36.1072 130.224 36.4316C130.16 36.8209 130.03 37.1453 129.835 37.4048C129.64 37.6643 129.446 37.859 129.121 37.9887C128.797 38.1185 128.473 38.1834 128.019 38.1834C127.564 38.1834 127.175 38.1185 126.916 37.9887C126.591 37.859 126.397 37.6643 126.202 37.4048C126.007 37.1453 125.877 36.8209 125.813 36.4316C125.748 36.0423 125.683 35.5882 125.683 35.0692C125.748 34.5501 125.748 34.096 125.813 33.7716ZM127.24 35.9126C127.24 36.1721 127.305 36.3667 127.37 36.5614C127.435 36.756 127.499 36.8858 127.629 37.0155C127.759 37.1453 127.889 37.1453 128.083 37.1453C128.408 37.1453 128.602 37.0155 128.732 36.6911C128.862 36.3667 128.927 35.8477 128.927 35.134C128.927 34.4204 128.862 33.9013 128.732 33.5769C128.602 33.2525 128.408 33.1228 128.083 33.1228C127.889 33.1228 127.759 33.1877 127.629 33.2525C127.499 33.3823 127.435 33.5121 127.37 33.7067C127.305 33.9013 127.305 34.096 127.24 34.3555C127.24 34.615 127.24 34.8745 127.24 35.1989C127.24 35.3935 127.24 35.6531 127.24 35.9126Z" fill="white"/>
    <path d="M132.561 32.1496V32.8633C132.691 32.6037 132.95 32.3442 133.21 32.2145C133.469 32.0847 133.729 32.0198 134.053 32.0198C134.507 32.0198 134.897 32.1496 135.156 32.4091C135.416 32.6686 135.545 33.1228 135.545 33.7067V38.0536H134.053V34.0311C134.053 33.7067 133.988 33.5121 133.923 33.3823C133.794 33.2525 133.664 33.1877 133.404 33.1877C132.885 33.1877 132.626 33.5121 132.626 34.1608V38.0536H131.134V32.2145H132.561V32.1496Z" fill="white"/>
    <path d="M58.9781 10.7395C58.9781 12.5561 58.5887 13.7888 57.7452 14.5674C56.9017 15.281 55.6688 15.6703 54.1115 15.6703C52.4893 15.6703 51.3213 15.281 50.6075 14.4376C49.8938 13.5942 49.5693 12.4264 49.5693 10.8693V10.5449H53.0733V11.2585C53.0733 11.9722 53.1382 12.4264 53.3328 12.6859C53.5275 12.9454 53.787 13.0752 54.0466 13.0752C54.371 13.0752 54.5657 12.9454 54.7604 12.6859C54.955 12.4264 55.0199 11.9722 55.0199 11.2585V0.423729H58.9132V10.7395H58.9781Z" fill="white"/>
    <path d="M64.8176 0.423737V15.4108H60.9248V0.423737H64.8176Z" fill="white"/>
    <path d="M70.7228 11.2585C70.7228 11.9722 70.8526 12.4913 71.0472 12.7508C71.2419 13.0103 71.5663 13.14 71.8908 13.14C72.2801 13.14 72.5397 13.0103 72.7343 12.7508C72.929 12.4913 73.0588 12.0371 73.0588 11.2585V0.423737H76.952V10.2854C76.952 11.3234 76.8223 12.2317 76.6276 12.9454C76.4329 13.6591 76.1085 14.1781 75.6543 14.6323C75.2001 15.0215 74.681 15.3459 74.097 15.4757C73.513 15.6054 72.7343 15.7352 71.8908 15.7352C71.0472 15.7352 70.3335 15.6703 69.6846 15.4757C69.0357 15.3459 68.5166 15.0215 68.0624 14.6323C67.6082 14.243 67.2838 13.6591 67.0891 12.9454C66.8944 12.2317 66.7646 11.3883 66.7646 10.2854V0.423737H70.6579V11.2585H70.7228Z" fill="white"/>
    <path d="M85.3868 7.75507V10.9341H78.834V7.75507H85.3868Z" fill="white"/>
    <path d="M95.9641 10.7395C95.9641 12.5561 95.5748 13.7888 94.7313 14.5674C93.8877 15.2811 92.6549 15.6703 91.0976 15.6703C89.4754 15.6703 88.3074 15.2811 87.5936 14.4376C86.8799 13.5942 86.5554 12.4264 86.5554 10.8693V10.5449H90.0594V11.2585C90.0594 11.9722 90.1242 12.4264 90.3189 12.6859C90.5136 12.9454 90.7731 13.0752 91.0327 13.0752C91.3571 13.0752 91.5518 12.9454 91.7464 12.6859C91.9411 12.4264 92.006 11.9722 92.006 11.2585V0.423737H95.8993V10.7395H95.9641Z" fill="white"/>
    <path d="M101.803 0.423737V15.4108H97.9106V0.423737H101.803Z" fill="white"/>
    <path d="M103.102 3.73257V0.423737H112.835V3.73257H109.915V15.4108H106.022V3.73257H103.102Z" fill="white"/>
    <path d="M120.102 4.38136C120.102 3.92721 120.038 3.53793 119.843 3.21353C119.648 2.88914 119.389 2.75938 118.999 2.75938C118.61 2.75938 118.286 2.88914 118.091 3.14866C117.896 3.40817 117.767 3.73257 117.767 4.05696C117.767 4.576 117.896 4.96527 118.221 5.22479C118.545 5.4843 118.934 5.74382 119.389 6.00334C119.843 6.19797 120.362 6.45749 120.946 6.65213C121.465 6.84677 121.984 7.17116 122.503 7.49556C122.958 7.81995 123.347 8.27411 123.671 8.85802C123.996 9.44193 124.126 10.1556 124.126 11.0639C124.126 12.6859 123.671 13.7888 122.763 14.5674C121.854 15.2811 120.557 15.6703 118.805 15.6703C117.961 15.6703 117.247 15.6054 116.663 15.4757C116.015 15.3459 115.495 15.0864 115.106 14.762C114.652 14.4376 114.327 13.9835 114.133 13.4644C113.938 12.9454 113.808 12.2966 113.808 11.5181V10.999H117.572V11.3883C117.572 12.0371 117.702 12.4913 117.961 12.7508C118.221 13.0103 118.48 13.14 118.87 13.14C119.259 13.14 119.583 13.0103 119.778 12.7508C119.973 12.4913 120.102 12.102 120.102 11.7127C120.102 11.1937 119.973 10.8044 119.648 10.5449C119.324 10.2854 118.999 10.0258 118.545 9.83121C118.091 9.63657 117.572 9.44193 117.053 9.18241C116.534 8.98778 116.015 8.72826 115.56 8.33899C115.106 8.01459 114.717 7.56044 114.457 7.0414C114.133 6.52237 114.003 5.8087 114.003 4.90039C114.003 3.34329 114.392 2.24035 115.236 1.39692C116.079 0.61837 117.312 0.229095 118.934 0.229095C120.622 0.229095 121.854 0.61837 122.633 1.33204C123.412 2.04571 123.801 3.21353 123.801 4.83551H120.167V4.38136H120.102Z" fill="white"/>
    <path d="M129.771 11.2585C129.771 11.9722 129.901 12.4913 130.095 12.7508C130.29 13.0103 130.614 13.14 130.939 13.14C131.328 13.14 131.588 13.0103 131.782 12.7508C131.977 12.4913 132.107 12.0371 132.107 11.2585V0.423737H136V10.2854C136 11.3234 135.87 12.2317 135.676 12.9454C135.481 13.6591 135.157 14.1781 134.702 14.6323C134.248 15.0215 133.729 15.3459 133.145 15.4757C132.561 15.6054 131.782 15.7352 130.939 15.7352C130.095 15.7352 129.382 15.6703 128.733 15.4757C128.084 15.3459 127.565 15.0215 127.11 14.6323C126.656 14.243 126.332 13.6591 126.137 12.9454C125.943 12.2317 125.813 11.3883 125.813 10.2854V0.423737H129.706V11.2585H129.771Z" fill="white"/>
    <path d="M13.4913 12.3615C15.5337 12.3615 17.1894 10.7058 17.1894 8.66338C17.1894 6.62097 15.5337 4.96527 13.4913 4.96527C11.4489 4.96527 9.79321 6.62097 9.79321 8.66338C9.79321 10.7058 11.4489 12.3615 13.4913 12.3615Z" fill="white"/>
    <path d="M30.6862 1.39692C29.7778 -0.030416 27.896 -0.419691 26.4685 0.488617C26.0143 0.748133 25.6898 1.13741 25.4952 1.52668V1.59156C25.4303 1.72132 25.3654 1.85108 25.3005 1.98084C24.6516 3.21354 21.7317 9.50681 20.5637 11.6478C19.785 13.14 18.098 15.865 17.0598 16.903C15.8918 18.0709 14.9834 18.6548 13.3612 19.044C12.323 19.2387 10.5061 18.9143 10.4412 18.9143L10.2465 18.8494C9.46789 18.6548 8.62435 18.7197 7.91059 19.2387C6.54794 20.147 6.09373 21.9636 7.00216 23.3261C7.39149 23.91 7.91059 24.2993 8.42969 24.4939H8.49458C8.62435 24.5588 10.3763 25.1427 12.9718 25.1427C13.8154 25.1427 14.6589 25.0778 15.4376 24.8832C16.6704 24.5588 19.5255 23.4558 21.1477 21.5743C22.5103 19.9524 24.9112 16.5786 25.9494 14.6323C27.2471 12.1669 30.816 4.51112 30.816 4.38136L30.9457 4.12185C31.2702 3.21354 31.2053 2.24035 30.6862 1.39692Z" fill="white"/>
    <path d="M40.6799 6.13308C39.7065 4.64086 37.7599 4.18671 36.2675 5.15989C35.7484 5.48429 35.3591 6.00332 35.0995 6.52235C35.0995 6.52235 35.0995 6.58723 35.0346 6.58723C33.9315 8.92288 30.3627 16.1893 28.8703 19.044C28.7405 19.3035 25.8206 24.948 23.6793 26.7646C21.9922 28.2569 20.0455 29.3598 18.034 30.0086C15.9576 30.7223 13.8163 30.9818 11.5453 30.9169C9.27418 30.852 6.74356 29.9437 4.66715 28.9705H4.60226C3.62894 28.5164 2.46096 28.5164 1.48765 29.1652C-0.00477028 30.1384 -0.458985 32.0847 0.514332 33.5769C0.57922 33.7067 0.644107 33.7716 0.708995 33.9013C0.708995 33.9013 0.708995 33.9013 0.773883 33.9013C1.03343 34.1609 1.29299 34.4204 1.55254 34.5501L1.61742 34.615L2.59074 35.134C5.4458 36.4965 8.43064 37.2751 11.4804 37.4048C14.5301 37.5346 17.5149 37.1453 20.2402 36.1721C23.0304 35.1989 25.6259 33.7067 27.897 31.7603C30.168 29.814 33.2178 24.6236 34.5155 22.1582C36.0728 19.1738 39.7714 11.518 40.8745 9.24728C41.3287 8.27409 41.3287 7.10627 40.6799 6.13308Z" fill="white"/>
</svg>
