<svg width="92" height="92" viewBox="0 0 92 92" fill="none" xmlns="http://www.w3.org/2000/svg">
    <g filter="url(#filter0_d)">
        <circle cx="46" cy="26" r="26" fill="#D85D28"/>
    </g>
    <path d="M41.8775 22.275C42.9187 22.275 43.7627 21.4346 43.7627 20.3978C43.7627 19.361 42.9187 18.5205 41.8775 18.5205C40.8363 18.5205 39.9923 19.361 39.9923 20.3978C39.9923 21.4346 40.8363 22.275 41.8775 22.275Z" fill="white"/>
    <path d="M50.6431 16.7091C50.18 15.9846 49.2208 15.787 48.493 16.248C48.2615 16.3798 48.0961 16.5774 47.9969 16.775V16.8079C47.9638 16.8738 47.9307 16.9397 47.8976 17.0055C47.5668 17.6313 46.0783 20.8259 45.4829 21.9128C45.0859 22.6702 44.2259 24.0535 43.6966 24.5804C43.1012 25.1733 42.6381 25.4697 41.8112 25.6673C41.2819 25.7661 40.3557 25.6014 40.3226 25.6014L40.2234 25.5685C39.8264 25.4697 39.3964 25.5026 39.0326 25.7661C38.3379 26.2272 38.1063 27.1493 38.5694 27.841C38.7679 28.1374 39.0326 28.335 39.2972 28.4338H39.3303C39.3964 28.4667 40.2895 28.7631 41.6127 28.7631C42.0427 28.7631 42.4727 28.7302 42.8697 28.6314C43.4982 28.4667 44.9536 27.9068 45.7806 26.9517C46.4752 26.1284 47.6991 24.4158 48.2284 23.4277C48.89 22.1762 50.7093 18.29 50.7093 18.2241L50.7755 18.0924C50.9409 17.6313 50.9078 17.1373 50.6431 16.7091Z" fill="white"/>
    <path d="M55.7379 19.1133C55.2417 18.3558 54.2493 18.1253 53.4885 18.6193C53.2239 18.784 53.0254 19.0475 52.8931 19.3109C52.8931 19.3109 52.8931 19.3439 52.86 19.3439C52.2977 20.5295 50.4784 24.2182 49.7175 25.6673C49.6514 25.799 48.1629 28.6643 47.0713 29.5865C46.2112 30.344 45.2189 30.9038 44.1934 31.2332C43.1349 31.5955 42.0433 31.7272 40.8856 31.6943C39.7278 31.6613 38.4377 31.2003 37.3792 30.7062H37.3461C36.85 30.4757 36.2546 30.4757 35.7584 30.805C34.9976 31.2991 34.766 32.2871 35.2622 33.0446C35.2953 33.1104 35.3284 33.1434 35.3614 33.2093C35.3614 33.2093 35.3614 33.2093 35.3945 33.2093C35.5268 33.341 35.6591 33.4727 35.7915 33.5386L35.8245 33.5715L36.3207 33.835C37.7762 34.5266 39.2978 34.9218 40.8525 34.9877C42.4072 35.0536 43.9288 34.856 45.3181 34.362C46.7405 33.8679 48.0636 33.1105 49.2214 32.1224C50.3791 31.1344 51.9338 28.4996 52.5954 27.2481C53.3893 25.7331 55.2748 21.8469 55.8371 20.6942C56.0686 20.2002 56.0686 19.6073 55.7379 19.1133Z" fill="white"/>
    <defs>
        <filter id="filter0_d" x="0" y="0" width="92" height="92" filterUnits="userSpaceOnUse" color-interpolation-filters="sRGB">
            <feFlood flood-opacity="0" result="BackgroundImageFix"/>
            <feColorMatrix in="SourceAlpha" type="matrix" values="0 0 0 0 0 0 0 0 0 0 0 0 0 0 0 0 0 0 127 0"/>
            <feOffset dy="20"/>
            <feGaussianBlur stdDeviation="10"/>
            <feColorMatrix type="matrix" values="0 0 0 0 0.831373 0 0 0 0 0.180392 0 0 0 0 0.0705882 0 0 0 0.4 0"/>
            <feBlend mode="normal" in2="BackgroundImageFix" result="effect1_dropShadow"/>
            <feBlend mode="normal" in="SourceGraphic" in2="effect1_dropShadow" result="shape"/>
        </filter>
    </defs>
</svg>
