<svg width="15" height="15" viewBox="0 0 15 15" fill="none" xmlns="http://www.w3.org/2000/svg">
<path fill-rule="evenodd" clip-rule="evenodd" d="M4.6875 0H10.3125C12.9009 0 15 2.09906 15 4.6875V10.3125C15 12.9009 12.9009 15 10.3125 15H4.6875C2.09906 15 0 12.9009 0 10.3125V4.6875C0 2.09906 2.09906 0 4.6875 0ZM10.3125 13.5938C12.1219 13.5938 13.5938 12.1219 13.5938 10.3125V4.6875C13.5938 2.87813 12.1219 1.40625 10.3125 1.40625H4.6875C2.87813 1.40625 1.40625 2.87813 1.40625 4.6875V10.3125C1.40625 12.1219 2.87813 13.5938 4.6875 13.5938H10.3125Z" fill="white"/>
<path fill-rule="evenodd" clip-rule="evenodd" d="M4.41178 7.62605C4.41178 5.85096 5.85098 4.41177 7.62607 4.41177C9.40115 4.41177 10.8404 5.85096 10.8404 7.62605C10.8404 9.40114 9.40115 10.8403 7.62607 10.8403C5.85098 10.8403 4.41178 9.40114 4.41178 7.62605ZM5.61715 7.62605C5.61715 8.73337 6.51876 9.63498 7.62608 9.63498C8.7334 9.63498 9.63501 8.73337 9.63501 7.62605C9.63501 6.51793 8.7334 5.61712 7.62608 5.61712C6.51876 5.61712 5.61715 6.51793 5.61715 7.62605Z" fill="white"/>
</svg>
