<svg width="15" height="11" viewBox="0 0 15 11" fill="none" xmlns="http://www.w3.org/2000/svg">
<path fill-rule="evenodd" clip-rule="evenodd" d="M10.965 0C12.8742 0 13.8739 0.273581 14.4153 0.944272C14.9593 1.61794 15 2.64979 15 4.14702V6.85303C15 8.56873 14.7403 9.55974 14.1316 10.1667C13.5381 10.7586 12.6207 11 10.9651 11H4.03481C0.624 11 0 9.60351 0 6.85303V4.14702C0 2.72729 0 1.70148 0.525919 1.00528C1.06534 0.291228 2.08195 0 4.03481 0H10.965ZM6.48302 7.58745L9.63002 5.87362C9.78989 5.78659 9.89001 5.6141 9.88981 5.42604C9.88957 5.23812 9.78902 5.06588 9.62891 4.97926L6.48191 3.27647C6.33196 3.19529 6.1522 3.20154 6.00767 3.293C5.86319 3.38447 5.77502 3.54783 5.77502 3.7239V7.14058C5.77502 7.31695 5.86343 7.48046 6.0082 7.57187C6.08509 7.62038 6.1719 7.64478 6.2589 7.64478C6.33573 7.64478 6.41267 7.62577 6.48302 7.58745Z" fill="#DADADA"/>
</svg>
